<svg xmlns="http://www.w3.org/2000/svg" xmlns:xlink="http://www.w3.org/1999/xlink" width="246" zoomAndPan="magnify" viewBox="0 0 184.5 187.499992" height="250" preserveAspectRatio="xMidYMid meet" version="1.0"><defs><g/><clipPath id="535a8ee19e"><path d="M 36.03125 84 L 51 84 L 51 113 L 36.03125 113 Z M 36.03125 84 " clip-rule="nonzero"/></clipPath><clipPath id="4ef0280431"><path d="M 86 48.023438 L 98 48.023438 L 98 59 L 86 59 Z M 86 48.023438 " clip-rule="nonzero"/></clipPath></defs><g fill="#000000" fill-opacity="1"><g transform="translate(81.060765, 87.45582)"><g><path d="M 0.203125 0 L 0.203125 -1.5625 L 0.53125 -1.5625 L 0.53125 0 Z M 0.203125 0 "/></g></g></g><g fill="#000000" fill-opacity="1"><g transform="translate(81.785724, 87.45582)"><g><path d="M 1.265625 0 L 0.953125 0 L 0.953125 -0.703125 C 0.953125 -0.785156 0.9375 -0.847656 0.90625 -0.890625 C 0.875 -0.929688 0.820312 -0.953125 0.75 -0.953125 C 0.664062 -0.953125 0.601562 -0.921875 0.5625 -0.859375 C 0.519531 -0.796875 0.5 -0.695312 0.5 -0.5625 L 0.5 0 L 0.171875 0 L 0.171875 -1.1875 L 0.421875 -1.1875 L 0.46875 -1.046875 L 0.484375 -1.046875 C 0.515625 -1.097656 0.5625 -1.140625 0.625 -1.171875 C 0.695312 -1.203125 0.769531 -1.21875 0.84375 -1.21875 C 0.988281 -1.21875 1.09375 -1.175781 1.15625 -1.09375 C 1.226562 -1.019531 1.265625 -0.914062 1.265625 -0.78125 Z M 1.265625 0 "/></g></g></g><g fill="#000000" fill-opacity="1"><g transform="translate(83.224952, 87.45582)"><g><path d="M 1 -0.359375 C 1 -0.234375 0.957031 -0.140625 0.875 -0.078125 C 0.789062 -0.015625 0.664062 0.015625 0.5 0.015625 C 0.40625 0.015625 0.328125 0.0078125 0.265625 0 C 0.210938 -0.0078125 0.15625 -0.0234375 0.09375 -0.046875 L 0.09375 -0.3125 C 0.15625 -0.289062 0.222656 -0.269531 0.296875 -0.25 C 0.378906 -0.226562 0.445312 -0.21875 0.5 -0.21875 C 0.625 -0.21875 0.6875 -0.25 0.6875 -0.3125 C 0.6875 -0.34375 0.675781 -0.363281 0.65625 -0.375 C 0.644531 -0.394531 0.617188 -0.414062 0.578125 -0.4375 C 0.535156 -0.457031 0.484375 -0.476562 0.421875 -0.5 C 0.328125 -0.539062 0.257812 -0.578125 0.21875 -0.609375 C 0.175781 -0.640625 0.144531 -0.675781 0.125 -0.71875 C 0.101562 -0.769531 0.09375 -0.828125 0.09375 -0.890625 C 0.09375 -0.992188 0.132812 -1.070312 0.21875 -1.125 C 0.300781 -1.1875 0.421875 -1.21875 0.578125 -1.21875 C 0.710938 -1.21875 0.847656 -1.1875 0.984375 -1.125 L 0.890625 -0.890625 C 0.828125 -0.910156 0.769531 -0.925781 0.71875 -0.9375 C 0.664062 -0.957031 0.613281 -0.96875 0.5625 -0.96875 C 0.46875 -0.96875 0.421875 -0.941406 0.421875 -0.890625 C 0.421875 -0.867188 0.4375 -0.847656 0.46875 -0.828125 C 0.5 -0.804688 0.566406 -0.769531 0.671875 -0.71875 C 0.765625 -0.6875 0.832031 -0.65625 0.875 -0.625 C 0.914062 -0.59375 0.945312 -0.550781 0.96875 -0.5 C 0.988281 -0.457031 1 -0.410156 1 -0.359375 Z M 1 -0.359375 "/></g></g></g><g fill="#000000" fill-opacity="1"><g transform="translate(84.313461, 87.45582)"><g><path d="M 0.671875 -0.984375 C 0.597656 -0.984375 0.539062 -0.960938 0.5 -0.921875 C 0.457031 -0.878906 0.4375 -0.816406 0.4375 -0.734375 L 0.890625 -0.734375 C 0.890625 -0.816406 0.867188 -0.878906 0.828125 -0.921875 C 0.785156 -0.960938 0.734375 -0.984375 0.671875 -0.984375 Z M 0.71875 0.015625 C 0.519531 0.015625 0.363281 -0.0351562 0.25 -0.140625 C 0.144531 -0.242188 0.09375 -0.394531 0.09375 -0.59375 C 0.09375 -0.789062 0.140625 -0.941406 0.234375 -1.046875 C 0.335938 -1.160156 0.476562 -1.21875 0.65625 -1.21875 C 0.832031 -1.21875 0.96875 -1.164062 1.0625 -1.0625 C 1.15625 -0.96875 1.203125 -0.835938 1.203125 -0.671875 L 1.203125 -0.515625 L 0.421875 -0.515625 C 0.429688 -0.421875 0.460938 -0.347656 0.515625 -0.296875 C 0.566406 -0.242188 0.632812 -0.21875 0.71875 -0.21875 C 0.789062 -0.21875 0.859375 -0.222656 0.921875 -0.234375 C 0.992188 -0.253906 1.0625 -0.28125 1.125 -0.3125 L 1.125 -0.0625 C 1.070312 -0.03125 1.007812 -0.0078125 0.9375 0 C 0.875 0.0078125 0.800781 0.015625 0.71875 0.015625 Z M 0.71875 0.015625 "/></g></g></g><g fill="#000000" fill-opacity="1"><g transform="translate(85.607268, 87.45582)"><g><path d="M 0.84375 -1.21875 C 0.882812 -1.21875 0.921875 -1.210938 0.953125 -1.203125 L 0.921875 -0.90625 C 0.898438 -0.90625 0.867188 -0.90625 0.828125 -0.90625 C 0.722656 -0.90625 0.640625 -0.878906 0.578125 -0.828125 C 0.523438 -0.773438 0.5 -0.703125 0.5 -0.609375 L 0.5 0 L 0.171875 0 L 0.171875 -1.1875 L 0.421875 -1.1875 L 0.46875 -1 L 0.484375 -1 C 0.515625 -1.0625 0.5625 -1.113281 0.625 -1.15625 C 0.6875 -1.195312 0.757812 -1.21875 0.84375 -1.21875 Z M 0.84375 -1.21875 "/></g></g></g><g fill="#000000" fill-opacity="1"><g transform="translate(86.601682, 87.45582)"><g><path d="M 0.15625 -1.5 C 0.15625 -1.601562 0.210938 -1.65625 0.328125 -1.65625 C 0.453125 -1.65625 0.515625 -1.601562 0.515625 -1.5 C 0.515625 -1.445312 0.5 -1.40625 0.46875 -1.375 C 0.4375 -1.351562 0.390625 -1.34375 0.328125 -1.34375 C 0.210938 -1.34375 0.15625 -1.394531 0.15625 -1.5 Z M 0.5 0 L 0.171875 0 L 0.171875 -1.1875 L 0.5 -1.1875 Z M 0.5 0 "/></g></g></g><g fill="#000000" fill-opacity="1"><g transform="translate(87.269971, 87.45582)"><g><path d="M 0.84375 -1.21875 C 0.882812 -1.21875 0.921875 -1.210938 0.953125 -1.203125 L 0.921875 -0.90625 C 0.898438 -0.90625 0.867188 -0.90625 0.828125 -0.90625 C 0.722656 -0.90625 0.640625 -0.878906 0.578125 -0.828125 C 0.523438 -0.773438 0.5 -0.703125 0.5 -0.609375 L 0.5 0 L 0.171875 0 L 0.171875 -1.1875 L 0.421875 -1.1875 L 0.46875 -1 L 0.484375 -1 C 0.515625 -1.0625 0.5625 -1.113281 0.625 -1.15625 C 0.6875 -1.195312 0.757812 -1.21875 0.84375 -1.21875 Z M 0.84375 -1.21875 "/></g></g></g><g fill="#000000" fill-opacity="1"><g transform="translate(88.264385, 87.45582)"><g/></g></g><g fill="#000000" fill-opacity="1"><g transform="translate(88.833232, 87.45582)"><g><path d="M 1.015625 0 L 0.96875 -0.15625 L 0.953125 -0.15625 C 0.921875 -0.09375 0.875 -0.046875 0.8125 -0.015625 C 0.75 0.00390625 0.675781 0.015625 0.59375 0.015625 C 0.445312 0.015625 0.335938 -0.0195312 0.265625 -0.09375 C 0.203125 -0.164062 0.171875 -0.273438 0.171875 -0.421875 L 0.171875 -1.1875 L 0.484375 -1.1875 L 0.484375 -0.5 C 0.484375 -0.414062 0.5 -0.347656 0.53125 -0.296875 C 0.5625 -0.253906 0.613281 -0.234375 0.6875 -0.234375 C 0.769531 -0.234375 0.832031 -0.265625 0.875 -0.328125 C 0.914062 -0.390625 0.9375 -0.488281 0.9375 -0.625 L 0.9375 -1.1875 L 1.265625 -1.1875 L 1.265625 0 Z M 1.015625 0 "/></g></g></g><g fill="#000000" fill-opacity="1"><g transform="translate(90.27246, 87.45582)"><g><path d="M 1.234375 0 L 0.921875 0 L 0.921875 -0.703125 C 0.921875 -0.785156 0.90625 -0.847656 0.875 -0.890625 C 0.84375 -0.929688 0.796875 -0.953125 0.734375 -0.953125 C 0.648438 -0.953125 0.585938 -0.921875 0.546875 -0.859375 C 0.515625 -0.796875 0.5 -0.695312 0.5 -0.5625 L 0.5 0 L 0.171875 0 L 0.171875 -1.1875 L 0.421875 -1.1875 L 0.46875 -1.046875 L 0.484375 -1.046875 C 0.515625 -1.097656 0.5625 -1.140625 0.625 -1.171875 C 0.6875 -1.203125 0.753906 -1.21875 0.828125 -1.21875 C 1.003906 -1.21875 1.125 -1.160156 1.1875 -1.046875 L 1.21875 -1.046875 C 1.25 -1.097656 1.296875 -1.140625 1.359375 -1.171875 C 1.421875 -1.203125 1.492188 -1.21875 1.578125 -1.21875 C 1.710938 -1.21875 1.8125 -1.179688 1.875 -1.109375 C 1.945312 -1.046875 1.984375 -0.9375 1.984375 -0.78125 L 1.984375 0 L 1.65625 0 L 1.65625 -0.703125 C 1.65625 -0.785156 1.640625 -0.847656 1.609375 -0.890625 C 1.585938 -0.929688 1.546875 -0.953125 1.484375 -0.953125 C 1.398438 -0.953125 1.335938 -0.921875 1.296875 -0.859375 C 1.253906 -0.804688 1.234375 -0.71875 1.234375 -0.59375 Z M 1.234375 0 "/></g></g></g><g fill="#000000" fill-opacity="1"><g transform="translate(92.422746, 87.45582)"><g/></g></g><g fill="#000000" fill-opacity="1"><g transform="translate(92.991594, 87.45582)"><g><path d="M 1 -0.359375 C 1 -0.234375 0.957031 -0.140625 0.875 -0.078125 C 0.789062 -0.015625 0.664062 0.015625 0.5 0.015625 C 0.40625 0.015625 0.328125 0.0078125 0.265625 0 C 0.210938 -0.0078125 0.15625 -0.0234375 0.09375 -0.046875 L 0.09375 -0.3125 C 0.15625 -0.289062 0.222656 -0.269531 0.296875 -0.25 C 0.378906 -0.226562 0.445312 -0.21875 0.5 -0.21875 C 0.625 -0.21875 0.6875 -0.25 0.6875 -0.3125 C 0.6875 -0.34375 0.675781 -0.363281 0.65625 -0.375 C 0.644531 -0.394531 0.617188 -0.414062 0.578125 -0.4375 C 0.535156 -0.457031 0.484375 -0.476562 0.421875 -0.5 C 0.328125 -0.539062 0.257812 -0.578125 0.21875 -0.609375 C 0.175781 -0.640625 0.144531 -0.675781 0.125 -0.71875 C 0.101562 -0.769531 0.09375 -0.828125 0.09375 -0.890625 C 0.09375 -0.992188 0.132812 -1.070312 0.21875 -1.125 C 0.300781 -1.1875 0.421875 -1.21875 0.578125 -1.21875 C 0.710938 -1.21875 0.847656 -1.1875 0.984375 -1.125 L 0.890625 -0.890625 C 0.828125 -0.910156 0.769531 -0.925781 0.71875 -0.9375 C 0.664062 -0.957031 0.613281 -0.96875 0.5625 -0.96875 C 0.46875 -0.96875 0.421875 -0.941406 0.421875 -0.890625 C 0.421875 -0.867188 0.4375 -0.847656 0.46875 -0.828125 C 0.5 -0.804688 0.566406 -0.769531 0.671875 -0.71875 C 0.765625 -0.6875 0.832031 -0.65625 0.875 -0.625 C 0.914062 -0.59375 0.945312 -0.550781 0.96875 -0.5 C 0.988281 -0.457031 1 -0.410156 1 -0.359375 Z M 1 -0.359375 "/></g></g></g><g fill="#000000" fill-opacity="1"><g transform="translate(94.080103, 87.45582)"><g><path d="M 1.015625 0 L 0.96875 -0.15625 L 0.953125 -0.15625 C 0.921875 -0.09375 0.875 -0.046875 0.8125 -0.015625 C 0.75 0.00390625 0.675781 0.015625 0.59375 0.015625 C 0.445312 0.015625 0.335938 -0.0195312 0.265625 -0.09375 C 0.203125 -0.164062 0.171875 -0.273438 0.171875 -0.421875 L 0.171875 -1.1875 L 0.484375 -1.1875 L 0.484375 -0.5 C 0.484375 -0.414062 0.5 -0.347656 0.53125 -0.296875 C 0.5625 -0.253906 0.613281 -0.234375 0.6875 -0.234375 C 0.769531 -0.234375 0.832031 -0.265625 0.875 -0.328125 C 0.914062 -0.390625 0.9375 -0.488281 0.9375 -0.625 L 0.9375 -1.1875 L 1.265625 -1.1875 L 1.265625 0 Z M 1.015625 0 "/></g></g></g><g fill="#000000" fill-opacity="1"><g transform="translate(95.51933, 87.45582)"><g><path d="M 0.828125 -1.21875 C 0.972656 -1.21875 1.082031 -1.160156 1.15625 -1.046875 C 1.238281 -0.941406 1.28125 -0.789062 1.28125 -0.59375 C 1.28125 -0.394531 1.238281 -0.242188 1.15625 -0.140625 C 1.082031 -0.0351562 0.972656 0.015625 0.828125 0.015625 C 0.679688 0.015625 0.570312 -0.03125 0.5 -0.125 L 0.46875 -0.125 L 0.421875 0 L 0.171875 0 L 0.171875 -1.65625 L 0.5 -1.65625 L 0.5 -1.28125 C 0.5 -1.226562 0.492188 -1.148438 0.484375 -1.046875 L 0.5 -1.046875 C 0.570312 -1.160156 0.679688 -1.21875 0.828125 -1.21875 Z M 0.734375 -0.953125 C 0.648438 -0.953125 0.585938 -0.925781 0.546875 -0.875 C 0.515625 -0.832031 0.5 -0.753906 0.5 -0.640625 L 0.5 -0.59375 C 0.5 -0.46875 0.515625 -0.378906 0.546875 -0.328125 C 0.585938 -0.273438 0.648438 -0.25 0.734375 -0.25 C 0.796875 -0.25 0.847656 -0.273438 0.890625 -0.328125 C 0.929688 -0.390625 0.953125 -0.484375 0.953125 -0.609375 C 0.953125 -0.722656 0.929688 -0.804688 0.890625 -0.859375 C 0.847656 -0.921875 0.796875 -0.953125 0.734375 -0.953125 Z M 0.734375 -0.953125 "/></g></g></g><g fill="#000000" fill-opacity="1"><g transform="translate(96.905094, 87.45582)"><g><path d="M 0.671875 -0.234375 C 0.734375 -0.234375 0.800781 -0.25 0.875 -0.28125 L 0.875 -0.03125 C 0.789062 0 0.691406 0.015625 0.578125 0.015625 C 0.453125 0.015625 0.359375 -0.015625 0.296875 -0.078125 C 0.234375 -0.140625 0.203125 -0.238281 0.203125 -0.375 L 0.203125 -0.953125 L 0.046875 -0.953125 L 0.046875 -1.09375 L 0.234375 -1.203125 L 0.328125 -1.453125 L 0.53125 -1.453125 L 0.53125 -1.1875 L 0.859375 -1.1875 L 0.859375 -0.953125 L 0.53125 -0.953125 L 0.53125 -0.375 C 0.53125 -0.320312 0.539062 -0.285156 0.5625 -0.265625 C 0.59375 -0.242188 0.628906 -0.234375 0.671875 -0.234375 Z M 0.671875 -0.234375 "/></g></g></g><g fill="#000000" fill-opacity="1"><g transform="translate(97.855668, 87.45582)"><g><path d="M 0.5 0 L 0.171875 0 L 0.171875 -1.1875 L 0.5 -1.1875 Z M 0.15625 -1.328125 L 0.15625 -1.359375 C 0.269531 -1.492188 0.351562 -1.597656 0.40625 -1.671875 L 0.765625 -1.671875 L 0.765625 -1.65625 C 0.734375 -1.613281 0.671875 -1.554688 0.578125 -1.484375 C 0.484375 -1.410156 0.414062 -1.359375 0.375 -1.328125 Z M 0.15625 -1.328125 "/></g></g></g><g fill="#000000" fill-opacity="1"><g transform="translate(98.523957, 87.45582)"><g><path d="M 0.671875 -0.234375 C 0.734375 -0.234375 0.800781 -0.25 0.875 -0.28125 L 0.875 -0.03125 C 0.789062 0 0.691406 0.015625 0.578125 0.015625 C 0.453125 0.015625 0.359375 -0.015625 0.296875 -0.078125 C 0.234375 -0.140625 0.203125 -0.238281 0.203125 -0.375 L 0.203125 -0.953125 L 0.046875 -0.953125 L 0.046875 -1.09375 L 0.234375 -1.203125 L 0.328125 -1.453125 L 0.53125 -1.453125 L 0.53125 -1.1875 L 0.859375 -1.1875 L 0.859375 -0.953125 L 0.53125 -0.953125 L 0.53125 -0.375 C 0.53125 -0.320312 0.539062 -0.285156 0.5625 -0.265625 C 0.59375 -0.242188 0.628906 -0.234375 0.671875 -0.234375 Z M 0.671875 -0.234375 "/></g></g></g><g fill="#000000" fill-opacity="1"><g transform="translate(99.474531, 87.45582)"><g><path d="M 1.015625 0 L 0.96875 -0.15625 L 0.953125 -0.15625 C 0.921875 -0.09375 0.875 -0.046875 0.8125 -0.015625 C 0.75 0.00390625 0.675781 0.015625 0.59375 0.015625 C 0.445312 0.015625 0.335938 -0.0195312 0.265625 -0.09375 C 0.203125 -0.164062 0.171875 -0.273438 0.171875 -0.421875 L 0.171875 -1.1875 L 0.484375 -1.1875 L 0.484375 -0.5 C 0.484375 -0.414062 0.5 -0.347656 0.53125 -0.296875 C 0.5625 -0.253906 0.613281 -0.234375 0.6875 -0.234375 C 0.769531 -0.234375 0.832031 -0.265625 0.875 -0.328125 C 0.914062 -0.390625 0.9375 -0.488281 0.9375 -0.625 L 0.9375 -1.1875 L 1.265625 -1.1875 L 1.265625 0 Z M 1.015625 0 "/></g></g></g><g fill="#000000" fill-opacity="1"><g transform="translate(100.913758, 87.45582)"><g><path d="M 0.5 0 L 0.171875 0 L 0.171875 -1.65625 L 0.5 -1.65625 Z M 0.5 0 "/></g></g></g><g fill="#000000" fill-opacity="1"><g transform="translate(101.582047, 87.45582)"><g><path d="M 0.4375 -0.59375 C 0.4375 -0.476562 0.453125 -0.390625 0.484375 -0.328125 C 0.523438 -0.265625 0.585938 -0.234375 0.671875 -0.234375 C 0.765625 -0.234375 0.828125 -0.265625 0.859375 -0.328125 C 0.898438 -0.390625 0.921875 -0.476562 0.921875 -0.59375 C 0.921875 -0.71875 0.898438 -0.804688 0.859375 -0.859375 C 0.828125 -0.921875 0.765625 -0.953125 0.671875 -0.953125 C 0.585938 -0.953125 0.523438 -0.921875 0.484375 -0.859375 C 0.453125 -0.804688 0.4375 -0.71875 0.4375 -0.59375 Z M 1.25 -0.59375 C 1.25 -0.40625 1.195312 -0.253906 1.09375 -0.140625 C 1 -0.0351562 0.859375 0.015625 0.671875 0.015625 C 0.554688 0.015625 0.453125 -0.00390625 0.359375 -0.046875 C 0.273438 -0.0976562 0.207031 -0.171875 0.15625 -0.265625 C 0.113281 -0.359375 0.09375 -0.46875 0.09375 -0.59375 C 0.09375 -0.789062 0.144531 -0.941406 0.25 -1.046875 C 0.351562 -1.160156 0.5 -1.21875 0.6875 -1.21875 C 0.800781 -1.21875 0.898438 -1.191406 0.984375 -1.140625 C 1.066406 -1.085938 1.128906 -1.015625 1.171875 -0.921875 C 1.222656 -0.828125 1.25 -0.71875 1.25 -0.59375 Z M 1.25 -0.59375 "/></g></g></g><path fill="#08c2c2" d="M 107.742188 98.746094 C 105.808594 98.746094 104.242188 97.179688 104.242188 95.25 C 104.242188 93.316406 105.808594 91.75 107.742188 91.75 C 109.671875 91.75 111.238281 93.316406 111.238281 95.25 C 111.238281 97.179688 109.671875 98.746094 107.742188 98.746094 Z M 92 110.097656 C 87.171875 110.097656 83.253906 106.964844 83.253906 103.101562 L 100.746094 103.101562 C 100.746094 106.964844 96.832031 110.097656 92 110.097656 Z M 76.257812 98.746094 C 74.328125 98.746094 72.761719 97.179688 72.761719 95.25 C 72.761719 93.316406 74.328125 91.75 76.257812 91.75 C 78.191406 91.75 79.757812 93.316406 79.757812 95.25 C 79.757812 97.179688 78.191406 98.746094 76.257812 98.746094 Z M 105.992188 77.757812 L 78.007812 77.757812 C 72.210938 77.757812 66.964844 80.109375 63.167969 83.90625 C 59.367188 87.703125 57.019531 92.949219 57.019531 98.746094 C 57.019531 110.339844 66.417969 119.734375 78.007812 119.734375 L 105.992188 119.734375 C 111.789062 119.734375 117.035156 117.386719 120.832031 113.585938 C 124.632812 109.789062 126.980469 104.542969 126.980469 98.746094 C 126.980469 87.15625 117.585938 77.757812 105.992188 77.757812 " fill-opacity="1" fill-rule="nonzero"/><path fill="#08c2c2" d="M 92 133.726562 L 81.507812 133.726562 C 76.785156 133.726562 72.203125 132.800781 67.890625 130.976562 C 63.722656 129.214844 59.984375 126.691406 56.769531 123.480469 C 53.558594 120.269531 51.039062 116.527344 49.277344 112.363281 C 47.449219 108.050781 46.527344 103.46875 46.527344 98.746094 C 46.527344 94.023438 47.449219 89.445312 49.277344 85.128906 C 51.039062 80.964844 53.558594 77.222656 56.769531 74.011719 C 59.984375 70.800781 63.722656 68.277344 67.890625 66.515625 C 72.203125 64.691406 76.785156 63.765625 81.507812 63.765625 L 102.496094 63.765625 C 107.214844 63.765625 111.796875 64.691406 116.109375 66.515625 C 120.277344 68.277344 124.015625 70.800781 127.230469 74.011719 C 130.441406 77.222656 132.964844 80.964844 134.726562 85.128906 C 136.550781 89.445312 137.476562 94.023438 137.476562 98.746094 L 133.976562 98.746094 C 133.976562 81.386719 119.855469 67.265625 102.496094 67.265625 L 81.507812 67.265625 C 64.148438 67.265625 50.023438 81.386719 50.023438 98.746094 C 50.023438 116.105469 64.148438 130.230469 81.507812 130.230469 L 92 130.230469 L 92 133.726562 " fill-opacity="1" fill-rule="nonzero"/><g clip-path="url(#535a8ee19e)"><path fill="#08c2c2" d="M 50.023438 112.738281 C 42.296875 112.738281 36.03125 106.472656 36.03125 98.746094 C 36.03125 91.019531 42.296875 84.753906 50.023438 84.753906 L 50.023438 112.738281 " fill-opacity="1" fill-rule="nonzero"/></g><path fill="#08c2c2" d="M 133.976562 112.738281 C 141.703125 112.738281 147.96875 106.472656 147.96875 98.746094 C 147.96875 91.019531 141.703125 84.753906 133.976562 84.753906 L 133.976562 112.738281 " fill-opacity="1" fill-rule="nonzero"/><path fill="#08c2c2" d="M 100.746094 79.507812 C 100.746094 83.371094 96.828125 86.503906 92 86.503906 C 87.171875 86.503906 83.253906 83.371094 83.253906 79.507812 C 83.253906 75.644531 87.171875 72.511719 92 72.511719 C 96.828125 72.511719 100.746094 75.644531 100.746094 79.507812 " fill-opacity="1" fill-rule="nonzero"/><g clip-path="url(#4ef0280431)"><path fill="#08c2c2" d="M 97.246094 53.273438 C 97.246094 56.171875 94.898438 58.519531 92 58.519531 C 89.101562 58.519531 86.753906 56.171875 86.753906 53.273438 C 86.753906 50.375 89.101562 48.023438 92 48.023438 C 94.898438 48.023438 97.246094 50.375 97.246094 53.273438 " fill-opacity="1" fill-rule="nonzero"/></g><path fill="#08c2c2" d="M 102.496094 131.976562 C 102.496094 135.84375 98.578125 138.972656 93.75 138.972656 C 88.917969 138.972656 85.003906 135.84375 85.003906 131.976562 C 85.003906 128.113281 88.917969 124.980469 93.75 124.980469 C 98.578125 124.980469 102.496094 128.113281 102.496094 131.976562 " fill-opacity="1" fill-rule="nonzero"/><path fill="#08c2c2" d="M 93.75 84.828125 L 90.25 84.828125 L 90.25 53.273438 L 93.75 53.273438 L 93.75 84.828125 " fill-opacity="1" fill-rule="nonzero"/></svg>